<svg xmlns="http://www.w3.org/2000/svg" xmlns:xlink="http://www.w3.org/1999/xlink" width="500" zoomAndPan="magnify" viewBox="0 0 375 374.999991" height="500" preserveAspectRatio="xMidYMid meet" version="1.0"><defs><g/><clipPath id="a7c7826562"><path d="M 228.84375 128.527344 L 344 128.527344 L 344 246.304688 L 228.84375 246.304688 Z M 228.84375 128.527344 " clip-rule="nonzero"/></clipPath></defs><rect x="-37.5" width="450" fill="#ffffff" y="-37.499999" height="449.999989" fill-opacity="1"/><rect x="-37.5" width="450" fill="#1b2538" y="-37.499999" height="449.999989" fill-opacity="1"/><g clip-path="url(#a7c7826562)"><path fill="#fafcf7" d="M 229.335938 128.53125 L 343.800781 186.988281 L 228.855469 246.472656 C 247.375 213.871094 262.257812 179.9375 229.335938 128.53125 Z M 229.335938 128.53125 " fill-opacity="1" fill-rule="nonzero"/></g><g fill="#ffffff" fill-opacity="1"><g transform="translate(31.300628, 180.337747)"><g><path d="M 17.027344 -15.332031 L 15.351562 -15.332031 C 15.089844 -15.332031 14.886719 -15.3125 14.699219 -15.257812 C 14.515625 -15.203125 14.347656 -15.109375 14.199219 -14.980469 C 14.066406 -14.832031 13.9375 -14.664062 13.824219 -14.441406 C 13.714844 -14.214844 13.621094 -13.9375 13.507812 -13.582031 L 10.214844 -5.359375 C 10.195312 -5.285156 10.179688 -5.285156 10.160156 -5.285156 L 9.972656 -5.285156 C 9.972656 -5.285156 9.9375 -5.285156 9.917969 -5.359375 L 6.644531 -13.582031 C 6.53125 -13.9375 6.417969 -14.214844 6.328125 -14.441406 C 6.214844 -14.664062 6.085938 -14.832031 5.953125 -14.980469 C 5.804688 -15.109375 5.621094 -15.203125 5.433594 -15.257812 C 5.246094 -15.3125 5.023438 -15.332031 4.78125 -15.332031 L 3.070312 -15.332031 C 2.4375 -15.332031 2.007812 -15.128906 1.785156 -14.738281 C 1.582031 -14.382812 1.488281 -13.789062 1.488281 -12.933594 L 1.488281 -0.632812 C 1.488281 -0.0546875 1.859375 0.0195312 2.027344 0.0195312 L 3.628906 0.0195312 C 3.796875 0.0195312 4.148438 -0.0546875 4.148438 -0.632812 L 4.148438 -11.816406 C 4.148438 -11.835938 4.148438 -11.851562 4.148438 -11.851562 L 4.242188 -11.851562 C 4.261719 -11.851562 4.28125 -11.851562 4.296875 -11.796875 L 7.480469 -3.925781 C 7.609375 -3.535156 7.742188 -3.199219 7.871094 -2.921875 C 8.019531 -2.640625 8.167969 -2.417969 8.316406 -2.234375 C 8.503906 -2.046875 8.691406 -1.898438 8.914062 -1.824219 C 9.136719 -1.75 9.378906 -1.710938 9.65625 -1.710938 L 10.421875 -1.710938 C 10.699219 -1.710938 10.960938 -1.75 11.164062 -1.824219 C 11.386719 -1.898438 11.59375 -2.046875 11.761719 -2.234375 C 11.910156 -2.417969 12.078125 -2.640625 12.207031 -2.921875 C 12.335938 -3.199219 12.46875 -3.535156 12.597656 -3.925781 L 15.796875 -11.816406 C 15.796875 -11.851562 15.816406 -11.851562 15.835938 -11.851562 L 15.929688 -11.851562 C 15.929688 -11.851562 15.929688 -11.835938 15.929688 -11.816406 L 15.929688 -0.632812 C 15.929688 -0.0546875 16.300781 0.0195312 16.449219 0.0195312 L 18.050781 0.0195312 C 18.21875 0.0195312 18.589844 -0.0546875 18.589844 -0.632812 L 18.589844 -12.933594 C 18.589844 -13.789062 18.496094 -14.382812 18.292969 -14.738281 C 18.066406 -15.128906 17.640625 -15.332031 17.027344 -15.332031 Z M 17.027344 -15.332031 "/></g></g></g><g fill="#ffffff" fill-opacity="1"><g transform="translate(52.298297, 180.337747)"><g><path d="M 11.460938 -13.601562 C 11.425781 -13.695312 11.386719 -13.808594 11.351562 -13.882812 C 11.054688 -14.847656 10.160156 -15.539062 9.136719 -15.539062 C 8.671875 -15.539062 8.222656 -15.40625 7.851562 -15.148438 C 7.742188 -15.089844 7.648438 -15.015625 7.574219 -14.960938 C 7.292969 -14.71875 7.015625 -14.273438 6.753906 -13.601562 L 1.5625 -0.707031 C 1.507812 -0.539062 1.488281 -0.371094 1.527344 -0.261719 C 1.542969 -0.148438 1.636719 0.0195312 1.933594 0.0195312 L 3.980469 0.0195312 C 4.222656 0.0195312 4.410156 -0.128906 4.503906 -0.371094 L 5.5625 -3.03125 L 9.640625 -3.03125 C 9.84375 -3.03125 10.03125 -3.125 10.121094 -3.292969 C 10.234375 -3.441406 10.253906 -3.648438 10.195312 -3.832031 L 9.527344 -5.488281 C 9.433594 -5.710938 9.230469 -5.863281 8.988281 -5.863281 L 6.679688 -5.863281 L 9.0625 -11.890625 C 9.082031 -11.925781 9.097656 -11.945312 9.097656 -11.945312 L 9.171875 -11.945312 C 9.171875 -11.945312 9.171875 -11.945312 9.191406 -11.910156 L 13.808594 -0.390625 C 13.898438 -0.128906 14.085938 0.0195312 14.347656 0.0195312 L 16.335938 0.0195312 C 16.636719 0.0195312 16.710938 -0.167969 16.746094 -0.261719 C 16.785156 -0.371094 16.765625 -0.539062 16.691406 -0.707031 Z M 11.460938 -13.601562 "/></g></g></g><g fill="#ffffff" fill-opacity="1"><g transform="translate(71.491909, 180.337747)"><g><path d="M 14.664062 -15.332031 L 13.007812 -15.332031 C 12.839844 -15.332031 12.484375 -15.277344 12.484375 -14.679688 L 12.484375 -3.5 C 12.484375 -3.480469 12.484375 -3.480469 12.484375 -3.460938 L 12.394531 -3.460938 C 12.375 -3.460938 12.355469 -3.460938 12.335938 -3.515625 L 6.457031 -13.972656 C 6.308594 -14.253906 6.175781 -14.476562 6.046875 -14.644531 C 5.917969 -14.832031 5.785156 -14.980469 5.65625 -15.070312 C 5.507812 -15.183594 5.339844 -15.257812 5.136719 -15.296875 C 4.949219 -15.3125 4.726562 -15.332031 4.484375 -15.332031 L 3.089844 -15.332031 C 2.550781 -15.332031 2.140625 -15.148438 1.878906 -14.8125 C 1.617188 -14.457031 1.488281 -13.84375 1.488281 -12.933594 L 1.488281 -0.632812 C 1.488281 -0.0546875 1.859375 0.0195312 2.027344 0.0195312 L 3.683594 0.0195312 C 3.851562 0.0195312 4.207031 -0.0546875 4.207031 -0.632812 L 4.207031 -11.816406 C 4.207031 -11.835938 4.207031 -11.851562 4.207031 -11.851562 L 4.296875 -11.851562 C 4.296875 -11.851562 4.316406 -11.851562 4.355469 -11.796875 L 10.253906 -1.339844 C 10.402344 -1.042969 10.550781 -0.820312 10.679688 -0.652344 C 10.8125 -0.464844 10.941406 -0.335938 11.089844 -0.242188 C 11.238281 -0.128906 11.40625 -0.0742188 11.59375 -0.0390625 C 11.761719 0 11.964844 0.0195312 12.226562 0.0195312 L 13.582031 0.0195312 C 14.125 0.0195312 14.53125 -0.167969 14.792969 -0.519531 C 15.054688 -0.855469 15.183594 -1.46875 15.183594 -2.382812 L 15.183594 -14.679688 C 15.183594 -15.277344 14.8125 -15.332031 14.664062 -15.332031 Z M 14.664062 -15.332031 "/></g></g></g><g fill="#ffffff" fill-opacity="1"><g transform="translate(89.086059, 180.337747)"><g><path d="M 14.347656 -15.332031 L 12.632812 -15.332031 C 12.46875 -15.332031 12.113281 -15.277344 12.113281 -14.699219 L 12.113281 -5.527344 C 12.113281 -4.96875 12.078125 -4.484375 12.019531 -4.132812 C 11.964844 -3.777344 11.851562 -3.5 11.722656 -3.292969 C 11.574219 -3.109375 11.40625 -2.976562 11.164062 -2.882812 C 10.921875 -2.808594 10.585938 -2.753906 10.195312 -2.753906 L 6.175781 -2.753906 C 5.785156 -2.753906 5.453125 -2.808594 5.210938 -2.882812 C 4.96875 -2.976562 4.800781 -3.109375 4.652344 -3.292969 C 4.523438 -3.5 4.410156 -3.777344 4.335938 -4.132812 C 4.28125 -4.484375 4.242188 -4.96875 4.242188 -5.527344 L 4.242188 -14.699219 C 4.242188 -15.277344 3.890625 -15.332031 3.722656 -15.332031 L 2.027344 -15.332031 C 1.859375 -15.332031 1.488281 -15.277344 1.488281 -14.699219 L 1.488281 -5.824219 C 1.488281 -4.78125 1.5625 -3.890625 1.730469 -3.164062 C 1.898438 -2.417969 2.175781 -1.804688 2.550781 -1.339844 C 2.902344 -0.855469 3.40625 -0.519531 3.980469 -0.296875 C 4.558594 -0.09375 5.265625 0 6.085938 0 L 10.269531 0 C 11.089844 0 11.796875 -0.09375 12.375 -0.296875 C 12.96875 -0.519531 13.453125 -0.855469 13.824219 -1.339844 C 14.199219 -1.804688 14.457031 -2.417969 14.625 -3.164062 C 14.792969 -3.890625 14.867188 -4.78125 14.867188 -5.824219 L 14.867188 -14.699219 C 14.867188 -15.277344 14.515625 -15.332031 14.347656 -15.332031 Z M 14.347656 -15.332031 "/></g></g></g><g fill="#ffffff" fill-opacity="1"><g transform="translate(106.364037, 180.337747)"><g><path d="M 12.691406 -15.332031 L 1.992188 -15.332031 C 1.84375 -15.332031 1.488281 -15.257812 1.488281 -14.664062 L 1.488281 -13.230469 C 1.488281 -12.652344 1.84375 -12.578125 1.992188 -12.578125 L 12.691406 -12.578125 C 12.839844 -12.578125 13.210938 -12.632812 13.210938 -13.210938 L 13.210938 -14.679688 C 13.210938 -15.277344 12.839844 -15.332031 12.691406 -15.332031 Z M 12.597656 -9.097656 L 2.996094 -9.082031 C 2.457031 -9.042969 1.992188 -8.746094 1.710938 -8.300781 C 1.636719 -8.148438 1.5625 -7.984375 1.527344 -7.816406 L 1.488281 -0.632812 C 1.488281 -0.0546875 1.859375 0.0195312 2.007812 0.0195312 L 3.722656 0.0195312 C 3.871094 0.0195312 4.242188 -0.0546875 4.242188 -0.632812 C 4.242188 -0.632812 4.261719 -6.34375 4.28125 -6.34375 L 12.597656 -6.34375 C 12.746094 -6.34375 13.117188 -6.402344 13.117188 -6.976562 L 13.117188 -8.449219 C 13.117188 -9.023438 12.746094 -9.097656 12.597656 -9.097656 Z M 12.597656 -9.097656 "/></g></g></g><g fill="#ffffff" fill-opacity="1"><g transform="translate(121.986745, 180.337747)"><g><path d="M 11.460938 -13.601562 C 11.425781 -13.695312 11.386719 -13.808594 11.351562 -13.882812 C 11.054688 -14.847656 10.160156 -15.539062 9.136719 -15.539062 C 8.671875 -15.539062 8.222656 -15.40625 7.851562 -15.148438 C 7.742188 -15.089844 7.648438 -15.015625 7.574219 -14.960938 C 7.292969 -14.71875 7.015625 -14.273438 6.753906 -13.601562 L 1.5625 -0.707031 C 1.507812 -0.539062 1.488281 -0.371094 1.527344 -0.261719 C 1.542969 -0.148438 1.636719 0.0195312 1.933594 0.0195312 L 3.980469 0.0195312 C 4.222656 0.0195312 4.410156 -0.128906 4.503906 -0.371094 L 5.5625 -3.03125 L 9.640625 -3.03125 C 9.84375 -3.03125 10.03125 -3.125 10.121094 -3.292969 C 10.234375 -3.441406 10.253906 -3.648438 10.195312 -3.832031 L 9.527344 -5.488281 C 9.433594 -5.710938 9.230469 -5.863281 8.988281 -5.863281 L 6.679688 -5.863281 L 9.0625 -11.890625 C 9.082031 -11.925781 9.097656 -11.945312 9.097656 -11.945312 L 9.171875 -11.945312 C 9.171875 -11.945312 9.171875 -11.945312 9.191406 -11.910156 L 13.808594 -0.390625 C 13.898438 -0.128906 14.085938 0.0195312 14.347656 0.0195312 L 16.335938 0.0195312 C 16.636719 0.0195312 16.710938 -0.167969 16.746094 -0.261719 C 16.785156 -0.371094 16.765625 -0.539062 16.691406 -0.707031 Z M 11.460938 -13.601562 "/></g></g></g><g fill="#ffffff" fill-opacity="1"><g transform="translate(141.180358, 180.337747)"><g><path d="M 12.859375 -15.332031 L 6.085938 -15.332031 C 5.265625 -15.332031 4.558594 -15.222656 3.980469 -15.015625 C 3.386719 -14.792969 2.902344 -14.441406 2.550781 -13.972656 C 2.175781 -13.507812 1.898438 -12.894531 1.730469 -12.152344 C 1.5625 -11.425781 1.488281 -10.53125 1.488281 -9.507812 L 1.488281 -5.824219 C 1.488281 -4.78125 1.5625 -3.890625 1.730469 -3.144531 C 1.898438 -2.417969 2.175781 -1.804688 2.550781 -1.320312 C 2.921875 -0.855469 3.40625 -0.503906 3.980469 -0.296875 C 4.558594 -0.09375 5.265625 0.0195312 6.085938 0.0195312 L 12.859375 0.0195312 C 13.007812 0.0195312 13.378906 -0.0546875 13.378906 -0.632812 L 13.378906 -2.101562 C 13.378906 -2.679688 13.007812 -2.753906 12.859375 -2.753906 L 6.175781 -2.753906 C 5.785156 -2.753906 5.453125 -2.792969 5.210938 -2.882812 C 4.96875 -2.957031 4.800781 -3.089844 4.652344 -3.292969 C 4.503906 -3.480469 4.410156 -3.757812 4.335938 -4.113281 C 4.28125 -4.484375 4.242188 -4.949219 4.242188 -5.507812 L 4.242188 -9.84375 C 4.242188 -10.402344 4.28125 -10.867188 4.335938 -11.21875 C 4.410156 -11.574219 4.503906 -11.835938 4.652344 -12.039062 C 4.800781 -12.242188 4.96875 -12.375 5.210938 -12.449219 C 5.453125 -12.542969 5.785156 -12.578125 6.175781 -12.578125 L 12.859375 -12.578125 C 13.007812 -12.578125 13.378906 -12.652344 13.378906 -13.25 L 13.378906 -14.679688 C 13.378906 -15.257812 13.007812 -15.332031 12.859375 -15.332031 Z M 12.859375 -15.332031 "/></g></g></g><g fill="#ffffff" fill-opacity="1"><g transform="translate(156.970452, 180.337747)"><g><path d="M 14.347656 -15.332031 L 2.027344 -15.332031 C 1.859375 -15.332031 1.488281 -15.277344 1.488281 -14.699219 L 1.488281 -13.25 C 1.488281 -12.632812 1.859375 -12.578125 2.027344 -12.578125 L 6.808594 -12.578125 L 6.808594 -0.632812 C 6.808594 -0.0546875 7.183594 0 7.332031 0 L 9.042969 0 C 9.210938 0 9.5625 -0.0546875 9.5625 -0.632812 L 9.5625 -12.578125 L 14.347656 -12.578125 C 14.515625 -12.578125 14.886719 -12.632812 14.886719 -13.25 L 14.886719 -14.699219 C 14.886719 -15.277344 14.515625 -15.332031 14.347656 -15.332031 Z M 14.347656 -15.332031 "/></g></g></g><g fill="#ffffff" fill-opacity="1"><g transform="translate(174.267021, 180.337747)"><g><path d="M 14.347656 -15.332031 L 12.632812 -15.332031 C 12.46875 -15.332031 12.113281 -15.277344 12.113281 -14.699219 L 12.113281 -5.527344 C 12.113281 -4.96875 12.078125 -4.484375 12.019531 -4.132812 C 11.964844 -3.777344 11.851562 -3.5 11.722656 -3.292969 C 11.574219 -3.109375 11.40625 -2.976562 11.164062 -2.882812 C 10.921875 -2.808594 10.585938 -2.753906 10.195312 -2.753906 L 6.175781 -2.753906 C 5.785156 -2.753906 5.453125 -2.808594 5.210938 -2.882812 C 4.96875 -2.976562 4.800781 -3.109375 4.652344 -3.292969 C 4.523438 -3.5 4.410156 -3.777344 4.335938 -4.132812 C 4.28125 -4.484375 4.242188 -4.96875 4.242188 -5.527344 L 4.242188 -14.699219 C 4.242188 -15.277344 3.890625 -15.332031 3.722656 -15.332031 L 2.027344 -15.332031 C 1.859375 -15.332031 1.488281 -15.277344 1.488281 -14.699219 L 1.488281 -5.824219 C 1.488281 -4.78125 1.5625 -3.890625 1.730469 -3.164062 C 1.898438 -2.417969 2.175781 -1.804688 2.550781 -1.339844 C 2.902344 -0.855469 3.40625 -0.519531 3.980469 -0.296875 C 4.558594 -0.09375 5.265625 0 6.085938 0 L 10.269531 0 C 11.089844 0 11.796875 -0.09375 12.375 -0.296875 C 12.96875 -0.519531 13.453125 -0.855469 13.824219 -1.339844 C 14.199219 -1.804688 14.457031 -2.417969 14.625 -3.164062 C 14.792969 -3.890625 14.867188 -4.78125 14.867188 -5.824219 L 14.867188 -14.699219 C 14.867188 -15.277344 14.515625 -15.332031 14.347656 -15.332031 Z M 14.347656 -15.332031 "/></g></g></g><g fill="#ffffff" fill-opacity="1"><g transform="translate(191.544999, 180.337747)"><g><path d="M 14.179688 -10.886719 C 14.179688 -10.867188 14.179688 -10.847656 14.179688 -10.828125 C 14.179688 -10.8125 14.179688 -10.792969 14.179688 -10.773438 Z M 14.53125 -0.800781 L 11.277344 -6.382812 C 12.1875 -6.492188 12.894531 -6.886719 13.359375 -7.515625 C 13.882812 -8.28125 14.160156 -9.378906 14.179688 -10.828125 C 14.160156 -12.28125 13.882812 -13.378906 13.359375 -14.140625 C 12.800781 -14.941406 11.871094 -15.332031 10.605469 -15.332031 L 2.027344 -15.332031 C 1.859375 -15.332031 1.488281 -15.277344 1.488281 -14.679688 L 1.488281 -13.210938 C 1.488281 -12.632812 1.859375 -12.578125 2.027344 -12.578125 L 10.121094 -12.578125 C 10.605469 -12.578125 10.921875 -12.449219 11.109375 -12.167969 C 11.3125 -11.890625 11.40625 -11.445312 11.40625 -10.828125 C 11.40625 -10.214844 11.3125 -9.769531 11.109375 -9.488281 C 10.921875 -9.210938 10.605469 -9.082031 10.121094 -9.082031 L 2.027344 -9.082031 C 1.859375 -9.082031 1.488281 -9.023438 1.488281 -8.449219 L 1.488281 -0.632812 C 1.488281 -0.0546875 1.859375 0.0195312 2.027344 0.0195312 L 3.722656 0.0195312 C 3.890625 0.0195312 4.242188 -0.0546875 4.242188 -0.632812 L 4.242188 -6.328125 L 8.167969 -6.328125 L 11.535156 -0.355469 C 11.609375 -0.242188 11.667969 -0.148438 11.742188 -0.09375 C 11.835938 -0.0195312 11.964844 0.0195312 12.132812 0.0195312 L 14.179688 0.0195312 C 14.402344 0.0195312 14.570312 -0.128906 14.605469 -0.355469 C 14.625 -0.539062 14.605469 -0.6875 14.53125 -0.800781 Z M 14.53125 -0.800781 "/></g></g></g><g fill="#ffffff" fill-opacity="1"><g transform="translate(208.581192, 180.337747)"><g><path d="M 12.671875 -3.332031 L 6.121094 -3.332031 C 5.730469 -3.332031 5.414062 -3.386719 5.15625 -3.460938 C 4.914062 -3.554688 4.746094 -3.683594 4.597656 -3.871094 C 4.445312 -4.074219 4.335938 -4.355469 4.28125 -4.707031 C 4.261719 -4.800781 4.261719 -4.929688 4.242188 -5.023438 C 4.242188 -5.023438 4.261719 -6.363281 4.28125 -6.363281 L 12.597656 -6.363281 C 12.746094 -6.363281 13.117188 -6.4375 13.117188 -7.015625 L 13.117188 -8.484375 C 13.117188 -9.0625 12.746094 -9.117188 12.597656 -9.117188 L 2.996094 -9.097656 C 2.457031 -9.0625 1.992188 -8.78125 1.730469 -8.316406 C 1.636719 -8.167969 1.5625 -8.019531 1.527344 -7.851562 L 1.488281 -5.507812 L 1.488281 -5.414062 C 1.507812 -4.539062 1.601562 -3.796875 1.730469 -3.183594 C 1.898438 -2.4375 2.175781 -1.824219 2.53125 -1.359375 C 2.902344 -0.875 3.386719 -0.539062 3.980469 -0.335938 C 4.558594 -0.113281 5.246094 -0.0195312 6.066406 -0.0195312 L 12.671875 -0.0195312 C 12.839844 -0.0195312 13.210938 -0.0742188 13.210938 -0.652344 L 13.210938 -2.699219 C 13.210938 -3.273438 12.839844 -3.332031 12.671875 -3.332031 Z M 12.691406 -15.371094 L 1.992188 -15.371094 C 1.84375 -15.371094 1.488281 -15.296875 1.488281 -14.699219 L 1.488281 -13.25 C 1.488281 -12.671875 1.84375 -12.617188 1.992188 -12.617188 L 12.691406 -12.597656 C 12.839844 -12.597656 13.210938 -12.671875 13.210938 -13.25 L 13.210938 -14.71875 C 13.210938 -15.296875 12.839844 -15.371094 12.691406 -15.371094 Z M 12.691406 -15.371094 "/></g></g></g><g fill="#ffffff" fill-opacity="1"><g transform="translate(224.203899, 180.337747)"><g><path d="M 14.199219 -11.871094 C 14.011719 -12.652344 13.695312 -13.304688 13.304688 -13.824219 C 12.894531 -14.328125 12.355469 -14.71875 11.722656 -14.960938 C 11.089844 -15.203125 10.347656 -15.332031 9.472656 -15.332031 L 2.976562 -15.332031 L 2.976562 -15.3125 C 2.4375 -15.277344 1.972656 -14.980469 1.691406 -14.53125 C 1.617188 -14.382812 1.542969 -14.214844 1.507812 -14.066406 L 1.488281 -1.359375 C 1.527344 -1.152344 1.601562 -0.949219 1.691406 -0.78125 C 1.992188 -0.277344 2.53125 0.0195312 3.109375 0.0195312 L 9.472656 0.0195312 C 10.347656 0.0195312 11.109375 -0.113281 11.722656 -0.355469 C 12.355469 -0.59375 12.894531 -0.984375 13.304688 -1.507812 C 13.695312 -2.007812 14.011719 -2.660156 14.199219 -3.441406 C 14.382812 -4.222656 14.476562 -5.15625 14.476562 -6.195312 L 14.476562 -9.117188 C 14.476562 -10.160156 14.382812 -11.089844 14.199219 -11.871094 Z M 4.222656 -2.847656 L 4.222656 -12.46875 C 4.222656 -12.542969 4.242188 -12.578125 4.261719 -12.578125 L 9.414062 -12.578125 C 9.84375 -12.578125 10.214844 -12.523438 10.511719 -12.410156 C 10.8125 -12.300781 11.035156 -12.152344 11.203125 -11.910156 C 11.386719 -11.667969 11.519531 -11.351562 11.59375 -10.960938 C 11.667969 -10.53125 11.722656 -10.011719 11.722656 -9.398438 L 11.722656 -5.917969 C 11.722656 -5.304688 11.667969 -4.78125 11.59375 -4.371094 C 11.519531 -3.964844 11.386719 -3.648438 11.203125 -3.40625 C 11.035156 -3.183594 10.8125 -3.015625 10.511719 -2.902344 C 10.214844 -2.792969 9.84375 -2.753906 9.414062 -2.753906 L 4.242188 -2.753906 C 4.242188 -2.753906 4.222656 -2.773438 4.222656 -2.847656 Z M 4.222656 -2.847656 "/></g></g></g><g fill="#ffffff" fill-opacity="1"><g transform="translate(143.317526, 205.970217)"><g><path d="M 17.027344 -15.332031 L 15.351562 -15.332031 C 15.089844 -15.332031 14.886719 -15.3125 14.699219 -15.257812 C 14.515625 -15.203125 14.347656 -15.109375 14.199219 -14.980469 C 14.066406 -14.832031 13.9375 -14.664062 13.824219 -14.441406 C 13.714844 -14.214844 13.621094 -13.9375 13.507812 -13.582031 L 10.214844 -5.359375 C 10.195312 -5.285156 10.179688 -5.285156 10.160156 -5.285156 L 9.972656 -5.285156 C 9.972656 -5.285156 9.9375 -5.285156 9.917969 -5.359375 L 6.644531 -13.582031 C 6.53125 -13.9375 6.417969 -14.214844 6.328125 -14.441406 C 6.214844 -14.664062 6.085938 -14.832031 5.953125 -14.980469 C 5.804688 -15.109375 5.621094 -15.203125 5.433594 -15.257812 C 5.246094 -15.3125 5.023438 -15.332031 4.78125 -15.332031 L 3.070312 -15.332031 C 2.4375 -15.332031 2.007812 -15.128906 1.785156 -14.738281 C 1.582031 -14.382812 1.488281 -13.789062 1.488281 -12.933594 L 1.488281 -0.632812 C 1.488281 -0.0546875 1.859375 0.0195312 2.027344 0.0195312 L 3.628906 0.0195312 C 3.796875 0.0195312 4.148438 -0.0546875 4.148438 -0.632812 L 4.148438 -11.816406 C 4.148438 -11.835938 4.148438 -11.851562 4.148438 -11.851562 L 4.242188 -11.851562 C 4.261719 -11.851562 4.28125 -11.851562 4.296875 -11.796875 L 7.480469 -3.925781 C 7.609375 -3.535156 7.742188 -3.199219 7.871094 -2.921875 C 8.019531 -2.640625 8.167969 -2.417969 8.316406 -2.234375 C 8.503906 -2.046875 8.691406 -1.898438 8.914062 -1.824219 C 9.136719 -1.75 9.378906 -1.710938 9.65625 -1.710938 L 10.421875 -1.710938 C 10.699219 -1.710938 10.960938 -1.75 11.164062 -1.824219 C 11.386719 -1.898438 11.59375 -2.046875 11.761719 -2.234375 C 11.910156 -2.417969 12.078125 -2.640625 12.207031 -2.921875 C 12.335938 -3.199219 12.46875 -3.535156 12.597656 -3.925781 L 15.796875 -11.816406 C 15.796875 -11.851562 15.816406 -11.851562 15.835938 -11.851562 L 15.929688 -11.851562 C 15.929688 -11.851562 15.929688 -11.835938 15.929688 -11.816406 L 15.929688 -0.632812 C 15.929688 -0.0546875 16.300781 0.0195312 16.449219 0.0195312 L 18.050781 0.0195312 C 18.21875 0.0195312 18.589844 -0.0546875 18.589844 -0.632812 L 18.589844 -12.933594 C 18.589844 -13.789062 18.496094 -14.382812 18.292969 -14.738281 C 18.066406 -15.128906 17.640625 -15.332031 17.027344 -15.332031 Z M 17.027344 -15.332031 "/></g></g></g><g fill="#ffffff" fill-opacity="1"><g transform="translate(164.315194, 205.970217)"><g><path d="M 14.160156 -13.972656 C 13.789062 -14.441406 13.304688 -14.792969 12.707031 -15.015625 C 12.132812 -15.222656 11.425781 -15.332031 10.605469 -15.332031 L 6.066406 -15.332031 C 5.246094 -15.332031 4.558594 -15.222656 3.980469 -15.015625 C 3.386719 -14.792969 2.902344 -14.441406 2.53125 -13.972656 C 2.175781 -13.507812 1.898438 -12.894531 1.730469 -12.152344 C 1.5625 -11.425781 1.488281 -10.550781 1.488281 -9.507812 L 1.488281 -5.824219 C 1.488281 -4.78125 1.5625 -3.890625 1.730469 -3.164062 C 1.898438 -2.417969 2.175781 -1.804688 2.53125 -1.339844 C 2.902344 -0.855469 3.386719 -0.503906 3.980469 -0.296875 C 4.539062 -0.09375 5.246094 0.0195312 6.066406 0.0195312 L 10.605469 0.0195312 C 11.425781 0.0195312 12.132812 -0.09375 12.707031 -0.296875 C 13.304688 -0.503906 13.789062 -0.855469 14.160156 -1.320312 C 14.53125 -1.804688 14.792969 -2.417969 14.960938 -3.164062 C 15.109375 -3.890625 15.203125 -4.78125 15.203125 -5.824219 L 15.203125 -9.507812 C 15.203125 -10.53125 15.109375 -11.425781 14.960938 -12.152344 C 14.792969 -12.894531 14.53125 -13.507812 14.160156 -13.972656 Z M 12.429688 -9.824219 L 12.429688 -5.488281 C 12.429688 -4.949219 12.410156 -4.484375 12.335938 -4.113281 C 12.28125 -3.777344 12.167969 -3.480469 12.019531 -3.292969 C 11.890625 -3.089844 11.703125 -2.957031 11.460938 -2.882812 C 11.21875 -2.792969 10.902344 -2.753906 10.511719 -2.753906 L 6.160156 -2.753906 C 5.769531 -2.753906 5.453125 -2.792969 5.210938 -2.882812 C 4.96875 -2.957031 4.78125 -3.089844 4.652344 -3.292969 C 4.503906 -3.480469 4.410156 -3.777344 4.335938 -4.113281 C 4.28125 -4.484375 4.242188 -4.949219 4.242188 -5.488281 L 4.242188 -9.824219 C 4.242188 -10.363281 4.28125 -10.828125 4.335938 -11.203125 C 4.410156 -11.554688 4.503906 -11.835938 4.652344 -12.039062 C 4.78125 -12.226562 4.96875 -12.355469 5.210938 -12.449219 C 5.453125 -12.523438 5.769531 -12.578125 6.160156 -12.578125 L 10.511719 -12.578125 C 10.902344 -12.578125 11.21875 -12.523438 11.460938 -12.449219 C 11.703125 -12.355469 11.890625 -12.226562 12.019531 -12.039062 C 12.167969 -11.835938 12.28125 -11.554688 12.335938 -11.203125 C 12.410156 -10.828125 12.429688 -10.363281 12.429688 -9.824219 Z M 12.429688 -9.824219 "/></g></g></g><g fill="#ffffff" fill-opacity="1"><g transform="translate(181.927934, 205.970217)"><g><path d="M 14.347656 -15.332031 L 2.027344 -15.332031 C 1.859375 -15.332031 1.488281 -15.277344 1.488281 -14.699219 L 1.488281 -13.25 C 1.488281 -12.632812 1.859375 -12.578125 2.027344 -12.578125 L 6.808594 -12.578125 L 6.808594 -0.632812 C 6.808594 -0.0546875 7.183594 0 7.332031 0 L 9.042969 0 C 9.210938 0 9.5625 -0.0546875 9.5625 -0.632812 L 9.5625 -12.578125 L 14.347656 -12.578125 C 14.515625 -12.578125 14.886719 -12.632812 14.886719 -13.25 L 14.886719 -14.699219 C 14.886719 -15.277344 14.515625 -15.332031 14.347656 -15.332031 Z M 14.347656 -15.332031 "/></g></g></g><g fill="#ffffff" fill-opacity="1"><g transform="translate(199.224503, 205.970217)"><g><path d="M 3.722656 -15.332031 L 2.007812 -15.332031 C 1.859375 -15.332031 1.488281 -15.257812 1.488281 -14.679688 L 1.488281 -0.632812 C 1.488281 -0.0546875 1.859375 0.0195312 2.007812 0.0195312 L 3.722656 0.0195312 C 3.871094 0.0195312 4.242188 -0.0546875 4.242188 -0.632812 L 4.242188 -14.679688 C 4.242188 -15.257812 3.871094 -15.332031 3.722656 -15.332031 Z M 3.722656 -15.332031 "/></g></g></g><g fill="#ffffff" fill-opacity="1"><g transform="translate(205.882754, 205.970217)"><g><path d="M 14.160156 -13.972656 C 13.789062 -14.441406 13.304688 -14.792969 12.707031 -15.015625 C 12.132812 -15.222656 11.425781 -15.332031 10.605469 -15.332031 L 6.066406 -15.332031 C 5.246094 -15.332031 4.558594 -15.222656 3.980469 -15.015625 C 3.386719 -14.792969 2.902344 -14.441406 2.53125 -13.972656 C 2.175781 -13.507812 1.898438 -12.894531 1.730469 -12.152344 C 1.5625 -11.425781 1.488281 -10.550781 1.488281 -9.507812 L 1.488281 -5.824219 C 1.488281 -4.78125 1.5625 -3.890625 1.730469 -3.164062 C 1.898438 -2.417969 2.175781 -1.804688 2.53125 -1.339844 C 2.902344 -0.855469 3.386719 -0.503906 3.980469 -0.296875 C 4.539062 -0.09375 5.246094 0.0195312 6.066406 0.0195312 L 10.605469 0.0195312 C 11.425781 0.0195312 12.132812 -0.09375 12.707031 -0.296875 C 13.304688 -0.503906 13.789062 -0.855469 14.160156 -1.320312 C 14.53125 -1.804688 14.792969 -2.417969 14.960938 -3.164062 C 15.109375 -3.890625 15.203125 -4.78125 15.203125 -5.824219 L 15.203125 -9.507812 C 15.203125 -10.53125 15.109375 -11.425781 14.960938 -12.152344 C 14.792969 -12.894531 14.53125 -13.507812 14.160156 -13.972656 Z M 12.429688 -9.824219 L 12.429688 -5.488281 C 12.429688 -4.949219 12.410156 -4.484375 12.335938 -4.113281 C 12.28125 -3.777344 12.167969 -3.480469 12.019531 -3.292969 C 11.890625 -3.089844 11.703125 -2.957031 11.460938 -2.882812 C 11.21875 -2.792969 10.902344 -2.753906 10.511719 -2.753906 L 6.160156 -2.753906 C 5.769531 -2.753906 5.453125 -2.792969 5.210938 -2.882812 C 4.96875 -2.957031 4.78125 -3.089844 4.652344 -3.292969 C 4.503906 -3.480469 4.410156 -3.777344 4.335938 -4.113281 C 4.28125 -4.484375 4.242188 -4.949219 4.242188 -5.488281 L 4.242188 -9.824219 C 4.242188 -10.363281 4.28125 -10.828125 4.335938 -11.203125 C 4.410156 -11.554688 4.503906 -11.835938 4.652344 -12.039062 C 4.78125 -12.226562 4.96875 -12.355469 5.210938 -12.449219 C 5.453125 -12.523438 5.769531 -12.578125 6.160156 -12.578125 L 10.511719 -12.578125 C 10.902344 -12.578125 11.21875 -12.523438 11.460938 -12.449219 C 11.703125 -12.355469 11.890625 -12.226562 12.019531 -12.039062 C 12.167969 -11.835938 12.28125 -11.554688 12.335938 -11.203125 C 12.410156 -10.828125 12.429688 -10.363281 12.429688 -9.824219 Z M 12.429688 -9.824219 "/></g></g></g><g fill="#ffffff" fill-opacity="1"><g transform="translate(223.495495, 205.970217)"><g><path d="M 14.664062 -15.332031 L 13.007812 -15.332031 C 12.839844 -15.332031 12.484375 -15.277344 12.484375 -14.679688 L 12.484375 -3.5 C 12.484375 -3.480469 12.484375 -3.480469 12.484375 -3.460938 L 12.394531 -3.460938 C 12.375 -3.460938 12.355469 -3.460938 12.335938 -3.515625 L 6.457031 -13.972656 C 6.308594 -14.253906 6.175781 -14.476562 6.046875 -14.644531 C 5.917969 -14.832031 5.785156 -14.980469 5.65625 -15.070312 C 5.507812 -15.183594 5.339844 -15.257812 5.136719 -15.296875 C 4.949219 -15.3125 4.726562 -15.332031 4.484375 -15.332031 L 3.089844 -15.332031 C 2.550781 -15.332031 2.140625 -15.148438 1.878906 -14.8125 C 1.617188 -14.457031 1.488281 -13.84375 1.488281 -12.933594 L 1.488281 -0.632812 C 1.488281 -0.0546875 1.859375 0.0195312 2.027344 0.0195312 L 3.683594 0.0195312 C 3.851562 0.0195312 4.207031 -0.0546875 4.207031 -0.632812 L 4.207031 -11.816406 C 4.207031 -11.835938 4.207031 -11.851562 4.207031 -11.851562 L 4.296875 -11.851562 C 4.296875 -11.851562 4.316406 -11.851562 4.355469 -11.796875 L 10.253906 -1.339844 C 10.402344 -1.042969 10.550781 -0.820312 10.679688 -0.652344 C 10.8125 -0.464844 10.941406 -0.335938 11.089844 -0.242188 C 11.238281 -0.128906 11.40625 -0.0742188 11.59375 -0.0390625 C 11.761719 0 11.964844 0.0195312 12.226562 0.0195312 L 13.582031 0.0195312 C 14.125 0.0195312 14.53125 -0.167969 14.792969 -0.519531 C 15.054688 -0.855469 15.183594 -1.46875 15.183594 -2.382812 L 15.183594 -14.679688 C 15.183594 -15.277344 14.8125 -15.332031 14.664062 -15.332031 Z M 14.664062 -15.332031 "/></g></g></g><g fill="#000000" fill-opacity="0.4"><g transform="translate(251.176277, 206.601273)"><g><path d="M 45.039062 -40.558594 L 40.609375 -40.558594 C 39.917969 -40.558594 39.378906 -40.511719 38.886719 -40.363281 C 38.394531 -40.214844 37.949219 -39.96875 37.558594 -39.625 C 37.210938 -39.230469 36.867188 -38.789062 36.574219 -38.195312 C 36.277344 -37.605469 36.03125 -36.867188 35.734375 -35.933594 L 27.023438 -14.175781 C 26.972656 -13.980469 26.925781 -13.980469 26.875 -13.980469 L 26.382812 -13.980469 C 26.382812 -13.980469 26.285156 -13.980469 26.234375 -14.175781 L 17.574219 -35.933594 C 17.277344 -36.867188 16.980469 -37.605469 16.734375 -38.195312 C 16.441406 -38.789062 16.097656 -39.230469 15.75 -39.625 C 15.359375 -39.96875 14.863281 -40.214844 14.371094 -40.363281 C 13.878906 -40.511719 13.289062 -40.558594 12.648438 -40.558594 L 8.121094 -40.558594 C 6.449219 -40.558594 5.316406 -40.019531 4.726562 -38.984375 C 4.183594 -38.050781 3.9375 -36.472656 3.9375 -34.210938 L 3.9375 -1.671875 C 3.9375 -0.148438 4.921875 0.0507812 5.367188 0.0507812 L 9.597656 0.0507812 C 10.042969 0.0507812 10.976562 -0.148438 10.976562 -1.671875 L 10.976562 -31.257812 C 10.976562 -31.304688 10.976562 -31.355469 10.976562 -31.355469 L 11.222656 -31.355469 C 11.273438 -31.355469 11.320312 -31.355469 11.371094 -31.207031 L 19.789062 -10.386719 C 20.132812 -9.351562 20.476562 -8.464844 20.820312 -7.726562 C 21.214844 -6.988281 21.609375 -6.398438 22.003906 -5.90625 C 22.496094 -5.414062 22.988281 -5.019531 23.578125 -4.824219 C 24.167969 -4.625 24.808594 -4.527344 25.546875 -4.527344 L 27.566406 -4.527344 C 28.304688 -4.527344 28.992188 -4.625 29.535156 -4.824219 C 30.125 -5.019531 30.664062 -5.414062 31.109375 -5.90625 C 31.503906 -6.398438 31.945312 -6.988281 32.289062 -7.726562 C 32.632812 -8.464844 32.980469 -9.351562 33.324219 -10.386719 L 41.789062 -31.257812 C 41.789062 -31.355469 41.839844 -31.355469 41.886719 -31.355469 L 42.132812 -31.355469 C 42.132812 -31.355469 42.132812 -31.304688 42.132812 -31.257812 L 42.132812 -1.671875 C 42.132812 -0.148438 43.117188 0.0507812 43.511719 0.0507812 L 47.746094 0.0507812 C 48.1875 0.0507812 49.171875 -0.148438 49.171875 -1.671875 L 49.171875 -34.210938 C 49.171875 -36.472656 48.925781 -38.050781 48.386719 -38.984375 C 47.796875 -40.019531 46.664062 -40.558594 45.039062 -40.558594 Z M 45.039062 -40.558594 "/></g></g></g><g fill="#1b2538" fill-opacity="1"><g transform="translate(251.176277, 206.601273)"><g><path d="M 45.039062 -40.558594 L 40.609375 -40.558594 C 39.917969 -40.558594 39.378906 -40.511719 38.886719 -40.363281 C 38.394531 -40.214844 37.949219 -39.96875 37.558594 -39.625 C 37.210938 -39.230469 36.867188 -38.789062 36.574219 -38.195312 C 36.277344 -37.605469 36.03125 -36.867188 35.734375 -35.933594 L 27.023438 -14.175781 C 26.972656 -13.980469 26.925781 -13.980469 26.875 -13.980469 L 26.382812 -13.980469 C 26.382812 -13.980469 26.285156 -13.980469 26.234375 -14.175781 L 17.574219 -35.933594 C 17.277344 -36.867188 16.980469 -37.605469 16.734375 -38.195312 C 16.441406 -38.789062 16.097656 -39.230469 15.75 -39.625 C 15.359375 -39.96875 14.863281 -40.214844 14.371094 -40.363281 C 13.878906 -40.511719 13.289062 -40.558594 12.648438 -40.558594 L 8.121094 -40.558594 C 6.449219 -40.558594 5.316406 -40.019531 4.726562 -38.984375 C 4.183594 -38.050781 3.9375 -36.472656 3.9375 -34.210938 L 3.9375 -1.671875 C 3.9375 -0.148438 4.921875 0.0507812 5.367188 0.0507812 L 9.597656 0.0507812 C 10.042969 0.0507812 10.976562 -0.148438 10.976562 -1.671875 L 10.976562 -31.257812 C 10.976562 -31.304688 10.976562 -31.355469 10.976562 -31.355469 L 11.222656 -31.355469 C 11.273438 -31.355469 11.320312 -31.355469 11.371094 -31.207031 L 19.789062 -10.386719 C 20.132812 -9.351562 20.476562 -8.464844 20.820312 -7.726562 C 21.214844 -6.988281 21.609375 -6.398438 22.003906 -5.90625 C 22.496094 -5.414062 22.988281 -5.019531 23.578125 -4.824219 C 24.167969 -4.625 24.808594 -4.527344 25.546875 -4.527344 L 27.566406 -4.527344 C 28.304688 -4.527344 28.992188 -4.625 29.535156 -4.824219 C 30.125 -5.019531 30.664062 -5.414062 31.109375 -5.90625 C 31.503906 -6.398438 31.945312 -6.988281 32.289062 -7.726562 C 32.632812 -8.464844 32.980469 -9.351562 33.324219 -10.386719 L 41.789062 -31.257812 C 41.789062 -31.355469 41.839844 -31.355469 41.886719 -31.355469 L 42.132812 -31.355469 C 42.132812 -31.355469 42.132812 -31.304688 42.132812 -31.257812 L 42.132812 -1.671875 C 42.132812 -0.148438 43.117188 0.0507812 43.511719 0.0507812 L 47.746094 0.0507812 C 48.1875 0.0507812 49.171875 -0.148438 49.171875 -1.671875 L 49.171875 -34.210938 C 49.171875 -36.472656 48.925781 -38.050781 48.386719 -38.984375 C 47.796875 -40.019531 46.664062 -40.558594 45.039062 -40.558594 Z M 45.039062 -40.558594 "/></g></g></g><g fill="#000000" fill-opacity="0.4"><g transform="translate(246.664148, 206.601273)"><g><path d="M 45.039062 -40.558594 L 40.609375 -40.558594 C 39.917969 -40.558594 39.378906 -40.511719 38.886719 -40.363281 C 38.394531 -40.214844 37.949219 -39.96875 37.558594 -39.625 C 37.210938 -39.230469 36.867188 -38.789062 36.574219 -38.195312 C 36.277344 -37.605469 36.03125 -36.867188 35.734375 -35.933594 L 27.023438 -14.175781 C 26.972656 -13.980469 26.925781 -13.980469 26.875 -13.980469 L 26.382812 -13.980469 C 26.382812 -13.980469 26.285156 -13.980469 26.234375 -14.175781 L 17.574219 -35.933594 C 17.277344 -36.867188 16.980469 -37.605469 16.734375 -38.195312 C 16.441406 -38.789062 16.097656 -39.230469 15.75 -39.625 C 15.359375 -39.96875 14.863281 -40.214844 14.371094 -40.363281 C 13.878906 -40.511719 13.289062 -40.558594 12.648438 -40.558594 L 8.121094 -40.558594 C 6.449219 -40.558594 5.316406 -40.019531 4.726562 -38.984375 C 4.183594 -38.050781 3.9375 -36.472656 3.9375 -34.210938 L 3.9375 -1.671875 C 3.9375 -0.148438 4.921875 0.0507812 5.367188 0.0507812 L 9.597656 0.0507812 C 10.042969 0.0507812 10.976562 -0.148438 10.976562 -1.671875 L 10.976562 -31.257812 C 10.976562 -31.304688 10.976562 -31.355469 10.976562 -31.355469 L 11.222656 -31.355469 C 11.273438 -31.355469 11.320312 -31.355469 11.371094 -31.207031 L 19.789062 -10.386719 C 20.132812 -9.351562 20.476562 -8.464844 20.820312 -7.726562 C 21.214844 -6.988281 21.609375 -6.398438 22.003906 -5.90625 C 22.496094 -5.414062 22.988281 -5.019531 23.578125 -4.824219 C 24.167969 -4.625 24.808594 -4.527344 25.546875 -4.527344 L 27.566406 -4.527344 C 28.304688 -4.527344 28.992188 -4.625 29.535156 -4.824219 C 30.125 -5.019531 30.664062 -5.414062 31.109375 -5.90625 C 31.503906 -6.398438 31.945312 -6.988281 32.289062 -7.726562 C 32.632812 -8.464844 32.980469 -9.351562 33.324219 -10.386719 L 41.789062 -31.257812 C 41.789062 -31.355469 41.839844 -31.355469 41.886719 -31.355469 L 42.132812 -31.355469 C 42.132812 -31.355469 42.132812 -31.304688 42.132812 -31.257812 L 42.132812 -1.671875 C 42.132812 -0.148438 43.117188 0.0507812 43.511719 0.0507812 L 47.746094 0.0507812 C 48.1875 0.0507812 49.171875 -0.148438 49.171875 -1.671875 L 49.171875 -34.210938 C 49.171875 -36.472656 48.925781 -38.050781 48.386719 -38.984375 C 47.796875 -40.019531 46.664062 -40.558594 45.039062 -40.558594 Z M 45.039062 -40.558594 "/></g></g></g><g fill="#ffffff" fill-opacity="1"><g transform="translate(246.664148, 206.601273)"><g><path d="M 45.039062 -40.558594 L 40.609375 -40.558594 C 39.917969 -40.558594 39.378906 -40.511719 38.886719 -40.363281 C 38.394531 -40.214844 37.949219 -39.96875 37.558594 -39.625 C 37.210938 -39.230469 36.867188 -38.789062 36.574219 -38.195312 C 36.277344 -37.605469 36.03125 -36.867188 35.734375 -35.933594 L 27.023438 -14.175781 C 26.972656 -13.980469 26.925781 -13.980469 26.875 -13.980469 L 26.382812 -13.980469 C 26.382812 -13.980469 26.285156 -13.980469 26.234375 -14.175781 L 17.574219 -35.933594 C 17.277344 -36.867188 16.980469 -37.605469 16.734375 -38.195312 C 16.441406 -38.789062 16.097656 -39.230469 15.75 -39.625 C 15.359375 -39.96875 14.863281 -40.214844 14.371094 -40.363281 C 13.878906 -40.511719 13.289062 -40.558594 12.648438 -40.558594 L 8.121094 -40.558594 C 6.449219 -40.558594 5.316406 -40.019531 4.726562 -38.984375 C 4.183594 -38.050781 3.9375 -36.472656 3.9375 -34.210938 L 3.9375 -1.671875 C 3.9375 -0.148438 4.921875 0.0507812 5.367188 0.0507812 L 9.597656 0.0507812 C 10.042969 0.0507812 10.976562 -0.148438 10.976562 -1.671875 L 10.976562 -31.257812 C 10.976562 -31.304688 10.976562 -31.355469 10.976562 -31.355469 L 11.222656 -31.355469 C 11.273438 -31.355469 11.320312 -31.355469 11.371094 -31.207031 L 19.789062 -10.386719 C 20.132812 -9.351562 20.476562 -8.464844 20.820312 -7.726562 C 21.214844 -6.988281 21.609375 -6.398438 22.003906 -5.90625 C 22.496094 -5.414062 22.988281 -5.019531 23.578125 -4.824219 C 24.167969 -4.625 24.808594 -4.527344 25.546875 -4.527344 L 27.566406 -4.527344 C 28.304688 -4.527344 28.992188 -4.625 29.535156 -4.824219 C 30.125 -5.019531 30.664062 -5.414062 31.109375 -5.90625 C 31.503906 -6.398438 31.945312 -6.988281 32.289062 -7.726562 C 32.632812 -8.464844 32.980469 -9.351562 33.324219 -10.386719 L 41.789062 -31.257812 C 41.789062 -31.355469 41.839844 -31.355469 41.886719 -31.355469 L 42.132812 -31.355469 C 42.132812 -31.355469 42.132812 -31.304688 42.132812 -31.257812 L 42.132812 -1.671875 C 42.132812 -0.148438 43.117188 0.0507812 43.511719 0.0507812 L 47.746094 0.0507812 C 48.1875 0.0507812 49.171875 -0.148438 49.171875 -1.671875 L 49.171875 -34.210938 C 49.171875 -36.472656 48.925781 -38.050781 48.386719 -38.984375 C 47.796875 -40.019531 46.664062 -40.558594 45.039062 -40.558594 Z M 45.039062 -40.558594 "/></g></g></g></svg>